<?xml version="1.0" encoding="UTF-8"?>
<svg version="1.1" xmlns="http://www.w3.org/2000/svg" width="474" height="474">
<path d="M0 0 C156.42 0 312.84 0 474 0 C474 156.42 474 312.84 474 474 C317.58 474 161.16 474 0 474 C0 317.58 0 161.16 0 0 Z " fill="#FDFDFD" transform="translate(0,0)"/>
<path d="M0 0 C5.83916154 3.47628049 10.66228313 8.97019197 12.625 15.5 C12.8203125 19.05078125 12.8203125 19.05078125 12.75 22.8125 C12.73195313 24.06675781 12.71390625 25.32101563 12.6953125 26.61328125 C12.67210937 27.56589844 12.64890625 28.51851562 12.625 29.5 C11.965 29.5 11.305 29.5 10.625 29.5 C10.24381295 30.60251429 10.24381295 30.60251429 9.85492516 31.7273016 C5.14355872 42.34843422 -7.34993443 51.58270666 -15.51416016 59.68920898 C-17.0314535 61.19966012 -18.54849049 62.71036881 -20.06529236 64.22131348 C-23.31489831 67.45765896 -26.56592699 70.69256596 -29.81798172 73.92645073 C-34.96626205 79.04673591 -40.10899326 84.17257013 -45.25057983 89.29957581 C-47.01590999 91.05976313 -48.78124703 92.81994355 -50.54659081 94.58011723 C-51.43016974 95.4611106 -52.31374868 96.34210398 -53.22410274 97.24979413 C-65.18220337 109.17193203 -77.14506011 121.08926691 -89.11816406 132.99633789 C-97.21367833 141.04729359 -105.30199908 149.10540214 -113.3823055 157.17162186 C-117.65102296 161.43228756 -121.92334763 165.68918986 -126.20460892 169.93725395 C-130.23026768 173.93174673 -134.24642686 177.93555182 -138.25566292 181.94652557 C-139.72308603 183.41126476 -141.19391658 184.87259997 -142.66849709 186.33013344 C-155.50122663 199.02097403 -166.65124992 211.50363584 -166.8125 230.5625 C-166.43411945 251.7070028 -153.50280077 264.43990435 -139.375 278.5 C-138.55 279.33660156 -137.725 280.17320312 -136.875 281.03515625 C-136.05 281.86917969 -135.225 282.70320313 -134.375 283.5625 C-133.55 284.39910156 -132.725 285.23570312 -131.875 286.09765625 C-129.42749714 288.52480716 -129.42749714 288.52480716 -126.76953125 290.5703125 C-124.55218646 292.35721026 -122.86242405 294.11954042 -121.0625 296.3125 C-118.65954783 299.13245037 -116.20414039 301.60863762 -113.375 304 C-110.74479415 306.23442249 -108.41810355 308.49233704 -106.1875 311.125 C-102.9019047 314.9935235 -99.39538903 318.59703188 -95.8125 322.1875 C-95.27020752 322.73422363 -94.72791504 323.28094727 -94.16918945 323.84423828 C-91.57123021 326.43313991 -88.95472674 328.87970848 -86.08984375 331.171875 C-81.64164513 334.98644533 -80.6435907 338.69471931 -80.09375 344.4375 C-79.87908994 351.59283521 -80.26762529 357.17937409 -85.3671875 362.62890625 C-91.86961816 368.74819705 -97.00019855 371.00064609 -105.93359375 370.734375 C-116.39449001 369.73012896 -123.38416045 360.52159104 -130.375 353.5 C-131.57233088 352.3132108 -132.77029582 351.1270611 -133.96875 349.94140625 C-135.27087937 348.64848386 -136.57296179 347.35551419 -137.875 346.0625 C-138.52597656 345.41990234 -139.17695313 344.77730469 -139.84765625 344.11523438 C-143.58747429 340.3943043 -147.04879268 336.59379363 -150.375 332.5 C-152.89106095 329.85491029 -155.40417766 327.47653101 -158.25 325.1875 C-160.67775561 323.21070154 -162.6663343 321.07742341 -164.6875 318.6875 C-167.9340427 314.86507389 -171.5196228 311.6571572 -175.3046875 308.37890625 C-177.98440542 305.94693584 -180.11561027 303.32423717 -182.375 300.5 C-183.220625 299.654375 -184.06625 298.80875 -184.9375 297.9375 C-187.29517117 295.57982883 -189.30266022 293.10713714 -191.375 290.5 C-192.28958984 289.64341797 -192.28958984 289.64341797 -193.22265625 288.76953125 C-207.84894193 273.34689607 -213.92490426 249.25618647 -213.7265625 228.62451172 C-213.11261085 207.48155181 -205.9617903 187.21408197 -192.10227966 171.11647034 C-191.58205024 170.5119323 -191.06182082 169.90739427 -190.52582687 169.2845369 C-183.97853426 161.77731242 -176.92227998 154.78302062 -169.86352539 147.76147461 C-168.34236347 146.24087835 -166.82164481 144.71983856 -165.30133057 143.19839478 C-161.21332419 139.10981969 -157.11922457 135.02739773 -153.02392125 130.94613338 C-148.72386727 126.65867884 -144.42956915 122.36546671 -140.1346283 118.07289124 C-132.01349233 109.95794732 -123.88727802 101.84810899 -115.75917858 93.7401405 C-106.51876323 84.52211509 -97.28405375 75.29838251 -88.04981625 66.07416904 C-72.27104768 50.31272787 -56.48804532 34.55553684 -40.70030212 18.80308533 C-40.03533279 18.13959518 -39.37036346 17.47610504 -38.68524355 16.79250914 C-37.46395828 15.57396483 -36.24264442 14.35544917 -35.02129418 13.13696998 C-34.20757242 12.32509832 -34.20757242 12.32509832 -33.37741184 11.49682522 C-32.86935981 10.99009679 -32.36130778 10.48336836 -31.83786023 9.96128452 C-30.41814252 8.54309605 -29.00202341 7.12130795 -27.58602047 5.69941044 C-19.93334616 -1.91307981 -10.3432329 -4.48743373 0 0 Z " fill="#080808" transform="translate(293.375,6.5)"/>
<path d="M0 0 C1.04520886 -0.00551503 1.04520886 -0.00551503 2.11153305 -0.01114148 C4.42200922 -0.02206276 6.73244026 -0.0260021 9.04293823 -0.02983093 C10.7092401 -0.03610384 12.37554059 -0.04275137 14.0418396 -0.04974365 C19.48864793 -0.0706707 24.93545621 -0.08112857 30.3822937 -0.09111023 C32.261799 -0.09516065 34.14130416 -0.09927766 36.02080917 -0.10346031 C44.84461735 -0.12247918 53.66841728 -0.13672266 62.49224198 -0.14507228 C72.66863072 -0.15486249 82.844803 -0.18124221 93.02111542 -0.22157317 C100.89731567 -0.25171609 108.77345372 -0.26653902 116.64971054 -0.26985329 C121.35034377 -0.27220385 126.05074482 -0.28116671 130.75131607 -0.30631447 C135.16896972 -0.32957136 139.58623779 -0.33383814 144.00393677 -0.32355309 C145.623669 -0.3230572 147.2434201 -0.32939319 148.86309433 -0.34310913 C151.07683495 -0.36080607 153.28918792 -0.35373464 155.50292969 -0.34057617 C156.74064684 -0.34296453 157.97836399 -0.34535288 159.25358772 -0.34781361 C163.27323967 0.24243522 165.40665627 1.72961409 168.6244812 4.14717102 C169.4701062 4.51842102 170.3157312 4.88967102 171.1869812 5.27217102 C175.76741193 8.79557928 178.19292298 14.13947441 179.0072937 19.81513977 C179.10894321 24.61444878 178.50571785 28.67923397 176.6244812 33.14717102 C175.9644812 33.14717102 175.3044812 33.14717102 174.6244812 33.14717102 C174.3976062 33.70404602 174.1707312 34.26092102 173.9369812 34.83467102 C172.23830142 37.82758301 170.20375433 39.8824434 167.6244812 42.14717102 C166.6344812 42.14717102 165.6444812 42.14717102 164.6244812 42.14717102 C164.6244812 42.80717102 164.6244812 43.46717102 164.6244812 44.14717102 C160.93513281 45.30657654 157.44204673 45.28416419 153.59158325 45.30107117 C152.52911633 45.30764455 152.52911633 45.30764455 151.44518542 45.31435072 C149.07167971 45.32770552 146.69821109 45.33391007 144.32467651 45.34004211 C142.62280104 45.34794563 140.92092723 45.35621473 139.21905518 45.36482239 C133.63025506 45.39101118 128.04144757 45.40634577 122.4526062 45.42060852 C120.52734116 45.42596928 118.60207617 45.43134679 116.67681122 45.43674088 C108.66791559 45.45836398 100.65902195 45.47710054 92.65010452 45.48836327 C81.17843955 45.50460283 69.70711323 45.53778735 58.23557591 45.59476411 C50.16579791 45.63347687 42.09611044 45.65299748 34.02624202 45.65828383 C29.2080577 45.66193512 24.39023486 45.67393302 19.57215118 45.70638657 C15.03794052 45.73649112 10.50430962 45.74277059 5.97002029 45.73100281 C4.30919609 45.73078228 2.64834478 45.73907017 0.98761368 45.75665665 C-14.14805334 45.90816802 -14.14805334 45.90816802 -20.02144241 41.48285866 C-21.97417473 39.55664501 -23.28844484 37.66102956 -24.3755188 35.14717102 C-24.3755188 34.48717102 -24.3755188 33.82717102 -24.3755188 33.14717102 C-25.0355188 33.14717102 -25.6955188 33.14717102 -26.3755188 33.14717102 C-28.07634493 29.44972291 -28.62454899 26.58316356 -28.5630188 22.52217102 C-28.55657349 21.5811554 -28.55012817 20.64013977 -28.54348755 19.67060852 C-28.3755188 17.14717102 -28.3755188 17.14717102 -27.3755188 14.14717102 C-26.7155188 14.14717102 -26.0555188 14.14717102 -25.3755188 14.14717102 C-25.3136438 13.42529602 -25.2517688 12.70342102 -25.1880188 11.95967102 C-24.11316173 8.23901195 -22.2512415 6.68850736 -19.3755188 4.14717102 C-18.7773938 3.56967102 -18.1792688 2.99217102 -17.5630188 2.39717102 C-12.56303276 -0.45996386 -5.61778168 0.01938477 0 0 Z " fill="#B3B2B1" transform="translate(229.37551879882813,214.8528289794922)"/>
<path d="M0 0 C3.43766091 2.43982659 5.16078075 4.88315535 7.20703125 8.56640625 C7.20703125 9.55640625 7.20703125 10.54640625 7.20703125 11.56640625 C8.19703125 11.56640625 9.18703125 11.56640625 10.20703125 11.56640625 C11.20532336 28.40426642 11.20532336 28.40426642 5.20703125 35.56640625 C3.03114337 37.80766415 0.84081193 39.87468314 -1.79296875 41.56640625 C-2.45296875 41.56640625 -3.11296875 41.56640625 -3.79296875 41.56640625 C-4.12361328 42.38818359 -4.12361328 42.38818359 -4.4609375 43.2265625 C-6.21167004 46.30189619 -8.58243941 48.56799346 -11.10546875 51.00390625 C-11.81606445 51.7009668 -11.81606445 51.7009668 -12.54101562 52.41210938 C-13.95563261 53.79963383 -15.37428387 55.18304132 -16.79296875 56.56640625 C-19.43509409 59.16653249 -21.89154541 61.68773137 -24.23046875 64.56640625 C-26.86048107 67.64544506 -29.65547215 70.01719026 -32.79296875 72.56640625 C-33.57671875 73.35015625 -34.36046875 74.13390625 -35.16796875 74.94140625 C-37.35468847 77.12812597 -39.56421354 79.24114737 -41.85546875 81.31640625 C-42.50644531 81.909375 -43.15742188 82.50234375 -43.828125 83.11328125 C-45.8573532 84.61402258 -47.32678187 85.14896705 -49.79296875 85.56640625 C-49.79296875 86.22640625 -49.79296875 86.88640625 -49.79296875 87.56640625 C-50.49035156 87.82550781 -51.18773437 88.08460938 -51.90625 88.3515625 C-55.0827501 89.68835753 -57.98215678 91.30571494 -60.98046875 93.00390625 C-66.51609868 96.00185414 -71.66024707 98.19066142 -77.79296875 99.56640625 C-79.00146484 99.87191406 -79.00146484 99.87191406 -80.234375 100.18359375 C-95.41805488 103.41040199 -112.92754443 103.04325218 -127.79296875 98.56640625 C-128.84613281 98.26476562 -129.89929688 97.963125 -130.984375 97.65234375 C-138.60882898 95.30488983 -145.17417236 91.97893718 -151.79296875 87.56640625 C-151.79296875 86.90640625 -151.79296875 86.24640625 -151.79296875 85.56640625 C-152.78296875 85.23640625 -153.77296875 84.90640625 -154.79296875 84.56640625 C-152.33739108 83.33861741 -150.9573809 83.59600993 -148.23046875 83.75390625 C-141.13770869 83.80508057 -135.57373538 81.49271695 -130.35546875 76.69140625 C-125.44326554 71.19409296 -125.56335225 65.44676322 -125.52734375 58.37109375 C-125.79546147 55.54008609 -126.49863112 54.04208378 -127.79296875 51.56640625 C-127.79296875 50.24640625 -127.79296875 48.92640625 -127.79296875 47.56640625 C-129.27796875 47.07140625 -129.27796875 47.07140625 -130.79296875 46.56640625 C-129.80296875 46.07140625 -129.80296875 46.07140625 -128.79296875 45.56640625 C-125.79296875 46.56640625 -125.79296875 46.56640625 -123.98046875 48.44140625 C-119.73309624 52.56742526 -115.33383625 53.92268705 -109.51953125 54.296875 C-107.78896484 54.41772461 -107.78896484 54.41772461 -106.0234375 54.54101562 C-104.83363281 54.61126953 -103.64382812 54.68152344 -102.41796875 54.75390625 C-101.20496094 54.83576172 -99.99195313 54.91761719 -98.7421875 55.00195312 C-95.75966973 55.20157046 -92.77689547 55.38932899 -89.79296875 55.56640625 C-89.79296875 54.90640625 -89.79296875 54.24640625 -89.79296875 53.56640625 C-89.14070313 53.37304688 -88.4884375 53.1796875 -87.81640625 52.98046875 C-83.11582895 51.58000177 -78.43455984 50.15431899 -73.79296875 48.56640625 C-73.79296875 47.90640625 -73.79296875 47.24640625 -73.79296875 46.56640625 C-70.33143029 43.56640625 -70.33143029 43.56640625 -67.79296875 43.56640625 C-67.79296875 42.90640625 -67.79296875 42.24640625 -67.79296875 41.56640625 C-67.13296875 41.56640625 -66.47296875 41.56640625 -65.79296875 41.56640625 C-65.56609375 40.98890625 -65.33921875 40.41140625 -65.10546875 39.81640625 C-63.45513397 36.98726091 -61.36038298 35.58366029 -58.79296875 33.56640625 C-57.43052079 31.9234543 -56.09432 30.25816288 -54.79296875 28.56640625 C-53.16796875 26.75390625 -53.16796875 26.75390625 -51.79296875 25.56640625 C-51.13296875 25.56640625 -50.47296875 25.56640625 -49.79296875 25.56640625 C-49.54546875 24.94765625 -49.29796875 24.32890625 -49.04296875 23.69140625 C-47.58668236 21.21571938 -46.41484369 20.61515623 -43.79296875 19.56640625 C-43.79296875 18.90640625 -43.79296875 18.24640625 -43.79296875 17.56640625 C-43.13296875 17.56640625 -42.47296875 17.56640625 -41.79296875 17.56640625 C-41.29796875 16.08140625 -41.29796875 16.08140625 -40.79296875 14.56640625 C-40.13296875 14.56640625 -39.47296875 14.56640625 -38.79296875 14.56640625 C-38.52484375 13.92703125 -38.25671875 13.28765625 -37.98046875 12.62890625 C-36.79296875 10.56640625 -36.79296875 10.56640625 -33.79296875 9.56640625 C-33.46296875 8.57640625 -33.13296875 7.58640625 -32.79296875 6.56640625 C-32.13296875 6.56640625 -31.47296875 6.56640625 -30.79296875 6.56640625 C-30.46296875 5.57640625 -30.13296875 4.58640625 -29.79296875 3.56640625 C-29.13296875 3.56640625 -28.47296875 3.56640625 -27.79296875 3.56640625 C-27.79296875 2.90640625 -27.79296875 2.24640625 -27.79296875 1.56640625 C-26.47296875 1.23640625 -25.15296875 0.90640625 -23.79296875 0.56640625 C-23.79296875 -0.09359375 -23.79296875 -0.75359375 -23.79296875 -1.43359375 C-15.38922038 -4.97201412 -7.90415301 -4.36906725 0 0 Z " fill="#EAA23F" transform="translate(337.79296875,292.43359375)"/>
<path d="M0 0 C2.35708618 0.81008911 2.35708618 0.81008911 4.48583984 1.75341797 C5.70271484 2.18654297 6.91958984 2.61966797 8.17333984 3.06591797 C11.29668006 4.65705355 13.93523324 6.40414082 16.72802734 8.49560547 C18.46955729 9.7417669 20.23541993 10.78484295 22.11083984 11.81591797 C25.19536416 13.58666341 27.85640505 15.36302271 30.48583984 17.75341797 C30.48583984 18.41341797 30.48583984 19.07341797 30.48583984 19.75341797 C31.56865234 20.06279297 31.56865234 20.06279297 32.67333984 20.37841797 C35.6950619 21.85570431 37.13910434 23.55131329 39.17333984 26.18310547 C40.63133507 28.02373466 40.63133507 28.02373466 43.42333984 30.19091797 C45.78118398 32.16380796 47.50149867 33.86017442 49.42333984 36.19091797 C51.9731716 39.27474591 54.74946537 41.74491621 57.82958984 44.28466797 C60.34496507 46.51528373 62.34216354 49.1700132 64.48583984 51.75341797 C65.57159447 52.69182018 66.67593998 53.60916948 67.79833984 54.50341797 C68.68521484 55.24591797 69.57208984 55.98841797 70.48583984 56.75341797 C70.48583984 57.41341797 70.48583984 58.07341797 70.48583984 58.75341797 C71.14583984 58.75341797 71.80583984 58.75341797 72.48583984 58.75341797 C74.36083984 60.76513672 74.36083984 60.76513672 76.48583984 63.44091797 C77.18708984 64.31103516 77.88833984 65.18115234 78.61083984 66.07763672 C82.80292115 72.06008608 83.38656501 77.60510976 82.48583984 84.75341797 C80.39634769 91.8333477 76.90806549 95.87812221 70.66943359 99.69482422 C64.46348325 102.70343342 56.8911354 102.79455073 50.36083984 100.69091797 C44.13075362 98.00293722 39.45763965 93.30517163 35.61083984 87.81591797 C32.64210691 83.61762807 28.99208545 80.85669819 24.93115234 77.75341797 C21.99118994 75.34884808 19.6908784 72.67919314 17.27490234 69.76513672 C14.59125462 66.7474979 11.53428973 64.20134182 8.48193359 61.56591797 C6.48583984 59.75341797 6.48583984 59.75341797 4.36083984 57.06591797 C0.7172577 52.57216666 -4.03585696 49.57951903 -9.51416016 47.75341797 C-9.51416016 47.09341797 -9.51416016 46.43341797 -9.51416016 45.75341797 C-19.5111615 43.96265077 -29.38301081 43.21447626 -39.51416016 42.75341797 C-39.51416016 43.41341797 -39.51416016 44.07341797 -39.51416016 44.75341797 C-41.61587883 45.59290617 -43.72062641 46.42481453 -45.82666016 47.25341797 C-46.99841797 47.71748047 -48.17017578 48.18154297 -49.37744141 48.65966797 C-52.51416016 49.75341797 -52.51416016 49.75341797 -55.51416016 49.75341797 C-49.20343455 43.16436617 -42.86059983 36.60846008 -36.47471046 30.09222221 C-33.51025038 27.06519203 -30.55794543 24.02806384 -27.63085938 20.96484375 C-24.80424725 18.00761582 -21.94909742 15.08090057 -19.07203293 12.17276382 C-17.98097758 11.05957417 -16.90052215 9.93589011 -15.83125687 8.801754 C-6.37648233 -1.20302492 -6.37648233 -1.20302492 0 0 Z " fill="#EAA23F" transform="translate(265.51416015625,83.24658203125)"/>
<path d="M0 0 C4.43304896 0.492561 5.95624401 1.86400898 9 5 C13.17162955 7.41924743 16.47732642 8.42180814 21.2734375 8.73046875 C23.00400391 8.85131836 23.00400391 8.85131836 24.76953125 8.97460938 C25.95933594 9.04486328 27.14914063 9.11511719 28.375 9.1875 C29.58800781 9.26935547 30.80101562 9.35121094 32.05078125 9.43554688 C35.03329902 9.63516421 38.01607328 9.82292274 41 10 C41 9.34 41 8.68 41 8 C44.465 7.505 44.465 7.505 48 7 C45.60205286 9.50694474 44.19695033 10.9189341 40.62084961 11.16113281 C37.39295268 11.20679432 34.16569392 11.23533472 30.9375 11.25 C29.82955078 11.270625 28.72160156 11.29125 27.58007812 11.3125 C20.70898616 11.34500664 15.38370219 10.56699136 9 8 C8.96132812 9.45019531 8.96132812 9.45019531 8.921875 10.9296875 C8.24752838 26.40900769 8.24752838 26.40900769 4 33 C2.515 33.495 2.515 33.495 1 34 C-2.02704059 37.2051018 -3.4975516 39.60357652 -4 44 C-5.65 44 -7.3 44 -9 44 C-8.67 45.32 -8.34 46.64 -8 48 C-5.03 48 -2.06 48 1 48 C0.67 48.99 0.34 49.98 0 51 C-7.5197279 49.86064729 -14.7163568 46.18909547 -21 42 C-21 41.34 -21 40.68 -21 40 C-21.99 39.67 -22.98 39.34 -24 39 C-21.54442233 37.77221116 -20.16441215 38.02960368 -17.4375 38.1875 C-10.34473994 38.23867432 -4.78076663 35.9263107 0.4375 31.125 C5.34970321 25.62768671 5.2296165 19.88035697 5.265625 12.8046875 C4.99750728 9.97367984 4.29433763 8.47567753 3 6 C3 4.68 3 3.36 3 2 C2.01 1.67 1.02 1.34 0 1 C0 0.67 0 0.34 0 0 Z " fill="#DFA04E" transform="translate(207,338)"/>
<path d="M0 0 C5.445 1.485 5.445 1.485 11 3 C11.185625 4.19625 11.37125 5.3925 11.5625 6.625 C12.81547351 11.78322669 15.88673702 13.95385713 20 17 C20.66 17.66 21.32 18.32 22 19 C22.99 19 23.98 19 25 19 C26.52448631 21.9826906 27.93940067 24.818202 29 28 C29.99 28.33 30.98 28.66 32 29 C34.1875 30.9375 34.1875 30.9375 36 33 C36 33.66 36 34.32 36 35 C36.94875 34.814375 37.8975 34.62875 38.875 34.4375 C42 34 42 34 44 35 C44.8515625 37.50390625 44.8515625 37.50390625 45.625 40.5625 C45.88539063 41.57441406 46.14578125 42.58632812 46.4140625 43.62890625 C46.60742188 44.41136719 46.80078125 45.19382813 47 46 C47.66 46 48.32 46 49 46 C49 47.65 49 49.3 49 51 C48.1646875 49.9171875 48.1646875 49.9171875 47.3125 48.8125 C45.0270024 45.92913577 45.0270024 45.92913577 42.25 43.3125 C40 41 40 41 40 39 C39.34 39 38.68 39 38 39 C38 38.34 38 37.68 38 37 C37.01 36.67 36.02 36.34 35 36 C32.3125 33.5625 32.3125 33.5625 30 31 C30 30.34 30 29.68 30 29 C29.01 28.67 28.02 28.34 27 28 C24.3125 25.5625 24.3125 25.5625 22 23 C22 22.34 22 21.68 22 21 C21.01 20.67 20.02 20.34 19 20 C16.3125 17.5625 16.3125 17.5625 14 15 C14 14.34 14 13.68 14 13 C13.01 12.67 12.02 12.34 11 12 C8.3125 9.5625 8.3125 9.5625 6 7 C6 6.34 6 5.68 6 5 C5.01 4.67 4.02 4.34 3 4 C3 3.34 3 2.68 3 2 C2.01 1.67 1.02 1.34 0 1 C0 0.67 0 0.34 0 0 Z " fill="#F9E4BE" transform="translate(298,103)"/>
<path d="M0 0 C-0.99 0 -1.98 0 -3 0 C-3 0.66 -3 1.32 -3 2 C-4.32 2.33 -5.64 2.66 -7 3 C-7 3.66 -7 4.32 -7 5 C-8.051875 5.8353125 -8.051875 5.8353125 -9.125 6.6875 C-12.02409195 9.0193783 -14.21662942 11.46018002 -16.5703125 14.31640625 C-17.98309832 15.98009665 -19.36806333 17.54889956 -21 19 C-21.66 19 -22.32 19 -23 19 C-23 19.66 -23 20.32 -23 21 C-24.65002828 22.35386936 -26.3174387 23.68678142 -28 25 C-28.33 25.66 -28.66 26.32 -29 27 C-29.66 27 -30.32 27 -31 27 C-31.33 27.99 -31.66 28.98 -32 30 C-35.08703669 33.34428975 -38.39972332 36.2226437 -42 39 C-42.8125 37.3125 -42.8125 37.3125 -43 35 C-40.59876799 31.96314775 -38.93950492 30.27141253 -35.1875 29.1875 C-34.1046875 29.0946875 -34.1046875 29.0946875 -33 29 C-32.7525 28.0925 -32.505 27.185 -32.25 26.25 C-30.94586155 22.85924003 -29.83137858 21.23078312 -27 19 C-26.01 19 -25.02 19 -24 19 C-23.34 17.68 -22.68 16.36 -22 15 C-21.01 15 -20.02 15 -19 15 C-19 14.01 -19 13.02 -19 12 C-18.34 12 -17.68 12 -17 12 C-17.33 10.35 -17.66 8.7 -18 7 C-17.36191406 6.82984375 -16.72382813 6.6596875 -16.06640625 6.484375 C-15.24011719 6.24203125 -14.41382813 5.9996875 -13.5625 5.75 C-12.73878906 5.51796875 -11.91507812 5.2859375 -11.06640625 5.046875 C-8.80004532 4.19229321 -8.80004532 4.19229321 -8.21484375 1.890625 C-8.14394531 1.26671875 -8.07304687 0.6428125 -8 0 C-4.94736336 -0.98120464 -3.05263664 -0.98120464 0 0 Z " fill="#FDF5D5" transform="translate(317,291)"/>
<path d="M0 0 C0.66 0.33 1.32 0.66 2 1 C1.01 2.98 0.02 4.96 -1 7 C-1.66 7 -2.32 7 -3 7 C-3.185625 7.928125 -3.185625 7.928125 -3.375 8.875 C-4 11 -4 11 -6 13 C-6.6425235 15.06874034 -6.6425235 15.06874034 -7 17 C-8.98 16.67 -10.96 16.34 -13 16 C-13.33 16.99 -13.66 17.98 -14 19 C-14.66 19 -15.32 19 -16 19 C-16.04125 19.5775 -16.0825 20.155 -16.125 20.75 C-17.45499391 24.16998433 -19.90088332 25.20251232 -23 27 C-23.99 27.33 -24.98 27.66 -26 28 C-26.0825 28.78375 -26.165 29.5675 -26.25 30.375 C-27 33 -27 33 -28.9375 34.125 C-29.618125 34.41375 -30.29875 34.7025 -31 35 C-31.66 35.99 -32.32 36.98 -33 38 C-35.625 38.6875 -35.625 38.6875 -38 39 C-38 38.34 -38 37.68 -38 37 C-34.53846154 34 -34.53846154 34 -32 34 C-32 33.34 -32 32.68 -32 32 C-31.34 32 -30.68 32 -30 32 C-29.773125 31.4225 -29.54625 30.845 -29.3125 30.25 C-27.66216522 27.42085466 -25.56741423 26.01725404 -23 24 C-21.63755204 22.35704805 -20.30135125 20.69175663 -19 19 C-17.375 17.1875 -17.375 17.1875 -16 16 C-15.34 16 -14.68 16 -14 16 C-13.7525 15.38125 -13.505 14.7625 -13.25 14.125 C-11.79371361 11.64931313 -10.62187494 11.04874998 -8 10 C-8 9.34 -8 8.68 -8 8 C-7.34 8 -6.68 8 -6 8 C-5.67 7.01 -5.34 6.02 -5 5 C-4.34 5 -3.68 5 -3 5 C-2.690625 4.360625 -2.38125 3.72125 -2.0625 3.0625 C-1 1 -1 1 0 0 Z " fill="#E6AE6A" transform="translate(302,302)"/>
<path d="M0 0 C2.23945136 1.63652215 3.02721576 2.93063574 4.03125 5.484375 C3.391875 5.29875 2.7525 5.113125 2.09375 4.921875 C1.0728125 4.7053125 1.0728125 4.7053125 0.03125 4.484375 C-0.29875 4.814375 -0.62875 5.144375 -0.96875 5.484375 C-3.83142567 5.55762668 -6.669469 5.57675705 -9.53125 5.546875 C-10.33755859 5.54236328 -11.14386719 5.53785156 -11.97460938 5.53320312 C-13.97268756 5.52138018 -15.97072783 5.50344414 -17.96875 5.484375 C-17.96875 4.494375 -17.96875 3.504375 -17.96875 2.484375 C-14.66875 2.154375 -11.36875 1.824375 -7.96875 1.484375 C-7.96875 0.824375 -7.96875 0.164375 -7.96875 -0.515625 C-12.58875 -0.515625 -17.20875 -0.515625 -21.96875 -0.515625 C-21.96875 0.144375 -21.96875 0.804375 -21.96875 1.484375 C-22.95875 1.484375 -23.94875 1.484375 -24.96875 1.484375 C-25.29875 3.134375 -25.62875 4.784375 -25.96875 6.484375 C-28.60875 7.144375 -31.24875 7.804375 -33.96875 8.484375 C-33.63875 7.824375 -33.30875 7.164375 -32.96875 6.484375 C-32.30875 6.484375 -31.64875 6.484375 -30.96875 6.484375 C-30.63875 5.494375 -30.30875 4.504375 -29.96875 3.484375 C-29.30875 3.484375 -28.64875 3.484375 -27.96875 3.484375 C-27.96875 2.824375 -27.96875 2.164375 -27.96875 1.484375 C-26.64875 1.154375 -25.32875 0.824375 -23.96875 0.484375 C-23.96875 -0.175625 -23.96875 -0.835625 -23.96875 -1.515625 C-15.30067936 -5.16533896 -8.18984493 -4.19859139 0 0 Z " fill="#E3A64E" transform="translate(337.96875,292.515625)"/>
<path d="M0 0 C1.32 0 2.64 0 4 0 C4 0.66 4 1.32 4 2 C4.7425 2 5.485 2 6.25 2 C8.5 2 10.75 2 13 2 C13 2.66 13 3.32 13 4 C16.08227709 4.22655901 19.1657016 4.42803465 22.25 4.625 C23.12269531 4.68945312 23.99539062 4.75390625 24.89453125 4.8203125 C26.16103516 4.89765625 26.16103516 4.89765625 27.453125 4.9765625 C28.22817383 5.02893066 29.00322266 5.08129883 29.80175781 5.13525391 C32.32812819 4.97981086 33.79183663 4.19127583 36 3 C38.0742625 2.71519194 40.16071439 2.51125776 42.25 2.375 C43.32765625 2.30023438 44.4053125 2.22546875 45.515625 2.1484375 C46.33546875 2.09945313 47.1553125 2.05046875 48 2 C43.9687339 5.3866267 41.14317962 5.5714017 36 6 C36 6.66 36 7.32 36 8 C33.16660035 8.02724423 30.33346883 8.04695589 27.5 8.0625 C26.31277344 8.07506836 26.31277344 8.07506836 25.1015625 8.08789062 C11.11167279 8.14522624 11.11167279 8.14522624 5.0625 4.5625 C4.31097656 4.13066406 3.55945313 3.69882812 2.78515625 3.25390625 C1 2 1 2 0 0 Z " fill="#FBF3D7" transform="translate(212,340)"/>
<path d="M0 0 C10.53453398 -0.34063763 19.80478292 0.02122353 30 3 C30 3.66 30 4.32 30 5 C30.66 5.33 31.32 5.66 32 6 C30.68 6 29.36 6 28 6 C28 5.34 28 4.68 28 4 C23.92497206 3.92579789 19.85020608 3.8713743 15.7746582 3.83520508 C14.38852081 3.82012603 13.00243106 3.7996595 11.61645508 3.77368164 C9.62341854 3.73726284 7.63003277 3.72186982 5.63671875 3.70703125 C4.43748779 3.6913208 3.23825684 3.67561035 2.00268555 3.65942383 C-1.30121529 4.034165 -1.99268869 4.4844935 -4 7 C-6.33984375 7.984375 -6.33984375 7.984375 -8.9375 8.75 C-9.79214844 9.01296875 -10.64679688 9.2759375 -11.52734375 9.546875 C-14.09097669 10.01667187 -15.56117696 9.83746128 -18 9 C-4.48275862 2 -4.48275862 2 0 2 C0 1.34 0 0.68 0 0 Z " fill="#FDF9E5" transform="translate(226,126)"/>
<path d="M0 0 C0.33 0.66 0.66 1.32 1 2 C9.91 2 18.82 2 28 2 C27.67 2.99 27.34 3.98 27 5 C27.66 5.33 28.32 5.66 29 6 C20.42 5.34 11.84 4.68 3 4 C3 4.66 3 5.32 3 6 C0.89828133 6.8394882 -1.20646625 7.67139656 -3.3125 8.5 C-4.48425781 8.9640625 -5.65601563 9.428125 -6.86328125 9.90625 C-10 11 -10 11 -13 11 C-11.40207236 9.34810857 -9.79644124 7.7036661 -8.1875 6.0625 C-7.29417969 5.14597656 -6.40085938 4.22945313 -5.48046875 3.28515625 C-3 1 -3 1 0 0 Z " fill="#E7A24F" transform="translate(223,122)"/>
<path d="M0 0 C-0.6875 2.375 -0.6875 2.375 -2 5 C-4.4375 6.125 -4.4375 6.125 -7 7 C-7.43828125 7.46019531 -7.8765625 7.92039062 -8.328125 8.39453125 C-16.28496011 16.03532385 -30.40961325 17.06952975 -40.875 17.125 C-41.90625 17.08375 -42.9375 17.0425 -44 17 C-40.68107493 14.78738328 -38.96754265 14.61823804 -35.0625 14.1875 C-25.65740702 12.84690768 -17.44907031 9.42751722 -9.71875 3.91796875 C-8 3 -8 3 -4 3 C-4 2.34 -4 1.68 -4 1 C-2 0 -2 0 0 0 Z " fill="#FBEBC7" transform="translate(292,377)"/>
<path d="M0 0 C2.9375 0.75 2.9375 0.75 6 2 C6.875 4.125 6.875 4.125 7 6 C8.423125 6.1546875 8.423125 6.1546875 9.875 6.3125 C13 7 13 7 15 10 C15.625 12.1875 15.625 12.1875 16 14 C18.97 14.495 18.97 14.495 22 15 C22 15.99 22 16.98 22 18 C28.27 18 34.54 18 41 18 C37.85638133 21.14361867 34.56884145 21.16747437 30.25 21.25 C22.07614157 21.11816357 16.84990266 18.49065158 10.88671875 12.97265625 C8.44022321 10.41472613 6.34835241 7.69677996 4.32421875 4.796875 C3.0122153 3.01657533 1.60093691 1.52112481 0 0 Z " fill="#E1AB60" transform="translate(295,164)"/>
<path d="M0 0 C0 0.66 0 1.32 0 2 C-0.66 2 -1.32 2 -2 2 C-2.0825 2.763125 -2.165 3.52625 -2.25 4.3125 C-3 7 -3 7 -4.9375 8.4375 C-7.72106338 10.54626014 -8.11911789 12.6966921 -9 16 C-9.969375 16.12375 -10.93875 16.2475 -11.9375 16.375 C-12.948125 16.58125 -13.95875 16.7875 -15 17 C-15.33 17.66 -15.66 18.32 -16 19 C-16.99 19.33 -17.98 19.66 -19 20 C-19.6496875 21.2375 -19.6496875 21.2375 -20.3125 22.5 C-22 25 -22 25 -25.1875 25.8125 C-26.115625 25.874375 -27.04375 25.93625 -28 26 C-25.4336037 23.35812146 -22.93242291 20.94536321 -20.0625 18.625 C-17.15641018 16.25541907 -14.83253852 13.5773179 -12.44140625 10.69921875 C-10.42823417 8.32596711 -8.22855706 6.16991082 -6 4 C-5.278125 3.236875 -4.55625 2.47375 -3.8125 1.6875 C-2 0 -2 0 0 0 Z " fill="#FDF5E0" transform="translate(320,351)"/>
<path d="M0 0 C4.99720234 3.73763353 8.26928406 6.78978398 10 13 C11.08283296 20.90833061 9.84358444 27.53789106 5 34 C2.69978775 35.8392193 0.73471594 36.82031861 -2 38 C-1.6875 36.125 -1.6875 36.125 -1 34 C2 32 2 32 5 32 C7.07643515 22.66462213 7.3364487 15.08255479 4 6 C3.01 5.67 2.02 5.34 1 5 C0.67 3.35 0.34 1.7 0 0 Z " fill="#DFAF67" transform="translate(338,144)"/>
<path d="M0 0 C0.33 0.66 0.66 1.32 1 2 C-0.2739589 4.03833424 -1.61061923 6.03852126 -3 8 C-3.66 8 -4.32 8 -5 8 C-5 8.66 -5 9.32 -5 10 C-2.03 10 0.94 10 4 10 C3.34 11.32 2.68 12.64 2 14 C-0.60525892 14.66027778 -2.85509193 15.0578967 -5.5 15.3125 C-6.18964844 15.39822266 -6.87929687 15.48394531 -7.58984375 15.57226562 C-12.69185268 16.15407366 -12.69185268 16.15407366 -15 15 C-10.05 10.05 -5.1 5.1 0 0 Z " fill="#E4A447" transform="translate(236,107)"/>
<path d="M0 0 C4.43304896 0.492561 5.95624401 1.86400898 9 5 C13.17162955 7.41924743 16.47732642 8.42180814 21.2734375 8.73046875 C23.00400391 8.85131836 23.00400391 8.85131836 24.76953125 8.97460938 C25.95933594 9.04486328 27.14914063 9.11511719 28.375 9.1875 C29.58800781 9.26935547 30.80101562 9.35121094 32.05078125 9.43554688 C35.03329902 9.63516421 38.01607328 9.82292274 41 10 C41 9.34 41 8.68 41 8 C44.465 7.505 44.465 7.505 48 7 C45.60205286 9.50694474 44.19695033 10.9189341 40.62084961 11.16113281 C37.39295268 11.20679432 34.16569392 11.23533472 30.9375 11.25 C29.82955078 11.270625 28.72160156 11.29125 27.58007812 11.3125 C20.70898616 11.34500664 15.38370219 10.56699136 9 8 C8.34 9.32 7.68 10.64 7 12 C3 6.5 3 6.5 3 2 C2.01 1.67 1.02 1.34 0 1 C0 0.67 0 0.34 0 0 Z " fill="#DBB06E" transform="translate(207,338)"/>
<path d="M0 0 C1.175625 0.5775 2.35125 1.155 3.5625 1.75 C13.58108492 6.21860693 24.88415196 8.90424228 35.8359375 9.31640625 C36.89941406 9.35830078 37.96289062 9.40019531 39.05859375 9.44335938 C40.15300781 9.48267578 41.24742187 9.52199219 42.375 9.5625 C43.49261719 9.60568359 44.61023438 9.64886719 45.76171875 9.69335938 C48.50770199 9.79897411 51.25376881 9.9010797 54 10 C54 10.33 54 10.66 54 11 C17.15488019 11.57744009 17.15488019 11.57744009 10 8 C10 7.34 10 6.68 10 6 C8.906875 5.855625 7.81375 5.71125 6.6875 5.5625 C3 5 3 5 0 4 C0 2.68 0 1.36 0 0 Z " fill="#FCEECE" transform="translate(194,384)"/>
<path d="M0 0 C2.88557328 1.35602664 5.38854796 2.89952411 7.9375 4.8125 C8.58589844 5.29332031 9.23429687 5.77414063 9.90234375 6.26953125 C12.44157797 8.36428127 14.69612846 10.64841514 17 13 C18.03659561 14.03892392 19.0744059 15.07663696 20.11328125 16.11328125 C23.07552083 19.07552083 26.03776042 22.03776042 29 25 C28.67 25.66 28.34 26.32 28 27 C26.68 26.67 25.36 26.34 24 26 C23.505 23.525 23.505 23.525 23 21 C21.68 20.67 20.36 20.34 19 20 C19 19.01 19 18.02 19 17 C17.35 16.67 15.7 16.34 14 16 C14 15.01 14 14.02 14 13 C13.34 13 12.68 13 12 13 C12 12.34 12 11.68 12 11 C11.01 11 10.02 11 9 11 C9 10.34 9 9.68 9 9 C8.34 8.67 7.68 8.34 7 8 C7.33 7.34 7.66 6.68 8 6 C7.01 6 6.02 6 5 6 C5 5.34 5 4.68 5 4 C4.360625 3.896875 3.72125 3.79375 3.0625 3.6875 C2.381875 3.460625 1.70125 3.23375 1 3 C0.67 2.01 0.34 1.02 0 0 Z " fill="#FDF0D3" transform="translate(259,132)"/>
<path d="M0 0 C0.99 0.33 1.98 0.66 3 1 C-3.46944495 7.08663756 -8.53692675 9.44745185 -17.53125 9.2578125 C-22.01269924 8.78981305 -25.50345015 7.30344664 -28.9375 4.3125 C-29.4634375 3.6628125 -29.4634375 3.6628125 -30 3 C-26.71303767 2.20046862 -25.28976808 1.90341064 -22 3 C-22.66 3 -23.32 3 -24 3 C-24 3.66 -24 4.32 -24 5 C-21.62554052 5.25073809 -19.25301023 5.47597287 -16.875 5.6875 C-16.20984375 5.76033203 -15.5446875 5.83316406 -14.859375 5.90820312 C-10.02373846 6.31117284 -7.10473285 5.5410251 -3 3 C-1.18445841 1.43897509 -1.18445841 1.43897509 0 0 Z " fill="#240C02" transform="translate(205,368)"/>
<path d="M0 0 C1.5 1.3125 1.5 1.3125 3 3 C3 3.99 3 4.98 3 6 C3.99 6 4.98 6 6 6 C7.01624265 23.14062596 7.01624265 23.14062596 1 30 C-1.52994319 32.24468158 -4.14333088 34.19243021 -7 36 C-7 34.68 -7 33.36 -7 32 C-6.01 32 -5.02 32 -4 32 C-3.731875 31.360625 -3.46375 30.72125 -3.1875 30.0625 C-2 28 -2 28 1 27 C3.1376919 20.92445459 3.92516499 14.40651886 3 8 C2.01625862 6.65462619 1.0170922 5.32034133 0 4 C0 2.68 0 1.36 0 0 Z " fill="#E6B572" transform="translate(342,298)"/>
<path d="M0 0 C1.32 0.33 2.64 0.66 4 1 C-2.27 7.27 -8.54 13.54 -15 20 C-16.07816551 15.68733797 -16.07800276 15.49979413 -14 12 C-13.690625 11.278125 -13.38125 10.55625 -13.0625 9.8125 C-12 8 -12 8 -9 7 C-9 7.66 -9 8.32 -9 9 C-8.01 9 -7.02 9 -6 9 C-6 8.01 -6 7.02 -6 6 C-5.34 6 -4.68 6 -4 6 C-3.34 4.68 -2.68 3.36 -2 2 C-1.34 2 -0.68 2 0 2 C0 1.34 0 0.68 0 0 Z " fill="#0F090A" transform="translate(256,83)"/>
<path d="M0 0 C0.99 0.33 1.98 0.66 3 1 C2.71800119 8.4165687 1.8738114 15.50802641 -2 22 C-2.99 22.33 -3.98 22.66 -5 23 C-5.33 23.66 -5.66 24.32 -6 25 C-6.99 25.33 -7.98 25.66 -9 26 C-9.66 26.99 -10.32 27.98 -11 29 C-13.31 28.67 -15.62 28.34 -18 28 C-15 26 -15 26 -11.625 24.1875 C-7.26750672 21.69092351 -3.94916905 18.993255 -1.75 14.375 C-0.69307063 9.61881783 -0.32826351 4.8548445 0 0 Z " fill="#C59B5C" transform="translate(213,349)"/>
<path d="M0 0 C2.63458736 0.5497207 4.7002951 1.3610545 7.08984375 2.58984375 C7.79367187 2.84894531 8.4975 3.10804687 9.22265625 3.375 C13.83712636 5.08440897 13.83712636 5.08440897 15.08984375 7.58984375 C7.52061298 5.8236899 7.52061298 5.8236899 4.90234375 4.40234375 C2.29218687 3.23227343 0.76040072 3.69965809 -1.91015625 4.58984375 C-3.59814452 6.02734566 -3.59814452 6.02734566 -4.91015625 7.58984375 C-5.90015625 8.08484375 -5.90015625 8.08484375 -6.91015625 8.58984375 C-7.24015625 9.57984375 -7.57015625 10.56984375 -7.91015625 11.58984375 C-9.24092614 11.93326824 -10.57447604 12.26604249 -11.91015625 12.58984375 C-12.90015625 14.07484375 -12.90015625 14.07484375 -13.91015625 15.58984375 C-14.90015625 15.25984375 -15.89015625 14.92984375 -16.91015625 14.58984375 C-5.35923832 1.08623488 -5.35923832 1.08623488 0 0 Z " fill="#D6A24D" transform="translate(262.91015625,82.41015625)"/>
<path d="M0 0 C2.375 0.3125 2.375 0.3125 5 1 C7 4 7 4 7 8 C7.99 8.33 8.98 8.66 10 9 C10.05394705 11.60444348 10.09364469 14.20776998 10.125 16.8125 C10.14175781 17.55048828 10.15851563 18.28847656 10.17578125 19.04882812 C10.21074628 22.91246426 10.19397555 24.70903668 8 28 C7.34 28 6.68 28 6 28 C6 28.99 6 29.98 6 31 C5.34 31 4.68 31 4 31 C5.875 25.125 5.875 25.125 7 24 C7.23653523 21.47403741 7.42173692 18.96892793 7.5625 16.4375 C7.62727539 15.37112305 7.62727539 15.37112305 7.69335938 14.28320312 C7.79971777 12.52238088 7.90038846 10.7612168 8 9 C7.01 9 6.02 9 5 9 C4.54625 8.071875 4.0925 7.14375 3.625 6.1875 C2.0578367 2.96078611 2.0578367 2.96078611 0 0 Z " fill="#FDF3D8" transform="translate(340,295)"/>
<path d="M0 0 C7.85097436 4.3873092 12.72705364 9.83940124 18 17 C17.34 17.33 16.68 17.66 16 18 C12.41081097 16.25142073 10.09065783 14.4110733 8 11 C8 10.34 8 9.68 8 9 C7.195625 8.773125 6.39125 8.54625 5.5625 8.3125 C4.716875 7.879375 3.87125 7.44625 3 7 C2.1875 4.375 2.1875 4.375 2 2 C1.34 2 0.68 2 0 2 C0 1.34 0 0.68 0 0 Z " fill="#FEF7E6" transform="translate(288,159)"/>
<path d="M0 0 C0 0.99 0 1.98 0 3 C-2.85366354 3.33821197 -5.70780596 3.6706978 -8.5625 4 C-9.76229492 4.14308594 -9.76229492 4.14308594 -10.98632812 4.2890625 C-15.69452167 4.82714176 -20.26147265 5.10176703 -25 5 C-24.67 4.01 -24.34 3.02 -24 2 C-21.50072231 1.66029235 -19.00080405 1.32811968 -16.5 1 C-15.80390625 0.90460938 -15.1078125 0.80921875 -14.390625 0.7109375 C-9.55299871 0.0838378 -4.87818804 -0.08789528 0 0 Z " fill="#F0A238" transform="translate(248,120)"/>
<path d="M0 0 C0.66 0.33 1.32 0.66 2 1 C4.19648703 7.58946108 3.81864489 15.65804899 1 22 C-1 19 -1 19 -0.625 15.8125 C-0.41875 14.884375 -0.2125 13.95625 0 13 C-0.66 13 -1.32 13 -2 13 C-1.39174965 8.65535464 -0.73832608 4.32448133 0 0 Z " fill="#1E0E05" transform="translate(210,344)"/>
<path d="M0 0 C0.66 0.33 1.32 0.66 2 1 C1.67 1.99 1.34 2.98 1 4 C2.32 4.33 3.64 4.66 5 5 C4.01 5 3.02 5 2 5 C2.33 5.99 2.66 6.98 3 8 C1.875 9.5 1.875 9.5 0 11 C-3.1875 11.1875 -3.1875 11.1875 -6 11 C-6 10.34 -6 9.68 -6 9 C-5.01 9 -4.02 9 -3 9 C-3 8.01 -3 7.02 -3 6 C-5.31 6.33 -7.62 6.66 -10 7 C-7.01767477 3.67356033 -4.13629913 1.70847138 0 0 Z " fill="#E6A241" transform="translate(262,341)"/>
<path d="M0 0 C0.99 0 1.98 0 3 0 C1.44200307 3.76878586 -0.909366 6.11271145 -3.8125 8.9375 C-4.66457031 9.77152344 -5.51664062 10.60554688 -6.39453125 11.46484375 C-7.25433594 12.30144531 -8.11414063 13.13804687 -9 14 C-9.89074219 14.90878906 -10.78148437 15.81757813 -11.69921875 16.75390625 C-14 19 -14 19 -16 20 C-16.33 18.35 -16.66 16.7 -17 15 C-16.34 15 -15.68 15 -15 15 C-14.443125 14.2575 -13.88625 13.515 -13.3125 12.75 C-11.22879635 10.27208214 -10.10984682 9.34192407 -7.375 7.875 C-3.83163361 6.24357005 -3.83163361 6.24357005 -2 3 C-1.34 3 -0.68 3 0 3 C0 2.01 0 1.02 0 0 Z " fill="#DEAA5E" transform="translate(330,335)"/>
<path d="M0 0 C0.66 0.66 1.32 1.32 2 2 C-5.92 2.495 -5.92 2.495 -14 3 C-14 3.66 -14 4.32 -14 5 C-14.99 5 -15.98 5 -17 5 C-17.33 6.65 -17.66 8.3 -18 10 C-20.64 10.66 -23.28 11.32 -26 12 C-25.67 11.34 -25.34 10.68 -25 10 C-24.34 10 -23.68 10 -23 10 C-22.67 9.01 -22.34 8.02 -22 7 C-21.34 7 -20.68 7 -20 7 C-20 6.34 -20 5.68 -20 5 C-18.68 4.67 -17.36 4.34 -16 4 C-16 3.34 -16 2.68 -16 2 C-10.78451916 -0.19599193 -5.595229 -0.68430858 0 0 Z " fill="#E7BB7E" transform="translate(330,289)"/>
<path d="M0 0 C0.94921875 2.50390625 0.94921875 2.50390625 1.6875 5.5625 C2.06455078 7.08037109 2.06455078 7.08037109 2.44921875 8.62890625 C2.63097656 9.41136719 2.81273437 10.19382813 3 11 C3.66 11 4.32 11 5 11 C5 12.65 5 14.3 5 16 C4.443125 15.278125 3.88625 14.55625 3.3125 13.8125 C1.0270024 10.92913577 1.0270024 10.92913577 -1.75 8.3125 C-4 6 -4 6 -4 4 C-4.66 4 -5.32 4 -6 4 C-6.33 2.68 -6.66 1.36 -7 0 C-3.98968256 -0.93423645 -3.13349732 -1.04449911 0 0 Z " fill="#FAF2D7" transform="translate(342,138)"/>
<path d="M0 0 C3.41660651 1.13886884 4.53320396 2.67527922 6.7265625 5.43359375 C8.3505174 7.43115791 10.14709491 9.21572102 12 11 C11.01 11.495 11.01 11.495 10 12 C10 11.34 10 10.68 10 10 C8.68 9.67 7.36 9.34 6 9 C5.67 9.99 5.34 10.98 5 12 C4.01 12.33 3.02 12.66 2 13 C2 11.68 2 10.36 2 9 C2.66 8.67 3.32 8.34 4 8 C4 7.34 4 6.68 4 6 C3.01 5.67 2.02 5.34 1 5 C1 5.66 1 6.32 1 7 C0.34 7 -0.32 7 -1 7 C-1.625 5.1875 -1.625 5.1875 -2 3 C-1.34 2.01 -0.68 1.02 0 0 Z " fill="#E5A654" transform="translate(322,128)"/>
<path d="M0 0 C0 3 0 3 -1 5 C0.32 5.33 1.64 5.66 3 6 C0.89828133 6.8394882 -1.20646625 7.67139656 -3.3125 8.5 C-4.48425781 8.9640625 -5.65601563 9.428125 -6.86328125 9.90625 C-10 11 -10 11 -13 11 C-11.40207236 9.34810857 -9.79644124 7.7036661 -8.1875 6.0625 C-7.29417969 5.14597656 -6.40085938 4.22945313 -5.48046875 3.28515625 C-3 1 -3 1 0 0 Z " fill="#D1AB70" transform="translate(223,122)"/>
<path d="M0 0 C0.33 0 0.66 0 1 0 C1.04898438 1.00160156 1.09796875 2.00320312 1.1484375 3.03515625 C1.22354079 4.37762759 1.29908526 5.7200743 1.375 7.0625 C1.44460937 8.37347656 1.51421875 9.68445313 1.5859375 11.03515625 C2.10759211 17.4712016 2.10759211 17.4712016 5 23 C4.91015699 24.85772162 4.75388139 26.71247985 4.5625 28.5625 C4.46066406 29.57441406 4.35882813 30.58632813 4.25390625 31.62890625 C4.17011719 32.41136719 4.08632812 33.19382812 4 34 C-1.55126663 23.76047878 -0.21023492 11.27092752 0 0 Z " fill="#404040" transform="translate(80,228)"/>
<path d="M0 0 C0.66 0.33 1.32 0.66 2 1 C1.01 2.98 0.02 4.96 -1 7 C-1.66 7 -2.32 7 -3 7 C-3.12375 7.61875 -3.2475 8.2375 -3.375 8.875 C-4 11 -4 11 -6 13 C-6.6425235 15.06874034 -6.6425235 15.06874034 -7 17 C-8.65 16.67 -10.3 16.34 -12 16 C-10 12 -10 12 -7 10 C-5.79549696 7.44816596 -5.79549696 7.44816596 -5 5 C-4.34 5 -3.68 5 -3 5 C-2.690625 4.360625 -2.38125 3.72125 -2.0625 3.0625 C-1 1 -1 1 0 0 Z " fill="#E99E49" transform="translate(302,302)"/>
<path d="M0 0 C0.66 0.33 1.32 0.66 2 1 C2 1.66 2 2.32 2 3 C2.721875 3.20625 3.44375 3.4125 4.1875 3.625 C7.82716634 5.40439243 9.5360917 7.82285509 12 11 C12.98290968 12.01680311 13.97334787 13.02738219 15 14 C14.34 14.66 13.68 15.32 13 16 C12.566875 15.360625 12.13375 14.72125 11.6875 14.0625 C10.08760823 11.73253997 10.08760823 11.73253997 7 11 C6.67 9.35 6.34 7.7 6 6 C4.35 5.67 2.7 5.34 1 5 C1 5.99 1 6.98 1 8 C-0.32 8 -1.64 8 -3 8 C-2.67 7.01 -2.34 6.02 -2 5 C-1.34 4.67 -0.68 4.34 0 4 C0 2.68 0 1.36 0 0 Z " fill="#E2A95C" transform="translate(294,100)"/>
<path d="M0 0 C2.125 0.9375 2.125 0.9375 4 2 C2.85416371 3.14583629 1.70701563 4.29038003 0.5546875 5.4296875 C-0.54425011 6.53966971 -1.62044459 7.67238879 -2.6796875 8.8203125 C-6.20841176 12.56860183 -8.80059372 14.85866691 -14 16 C-14 15.01 -14 14.02 -14 13 C-12.35 12.67 -10.7 12.34 -9 12 C-8.67 11.01 -8.34 10.02 -8 9 C-5.46110538 6.02336492 -3.7948311 4.78513747 0 4 C0.33 3.34 0.66 2.68 1 2 C0.01 2.33 -0.98 2.66 -2 3 C-2 2.34 -2 1.68 -2 1 C-1.34 0.67 -0.68 0.34 0 0 Z " fill="#E2B16B" transform="translate(302,362)"/>
<path d="M0 0 C10.53453398 -0.34063763 19.80478292 0.02122353 30 3 C30 3.66 30 4.32 30 5 C30.66 5.33 31.32 5.66 32 6 C30.68 6 29.36 6 28 6 C28 5.34 28 4.68 28 4 C21.07 3.505 21.07 3.505 14 3 C14 2.34 14 1.68 14 1 C9.38 1 4.76 1 0 1 C0 0.67 0 0.34 0 0 Z " fill="#F7E1B6" transform="translate(226,126)"/>
<path d="M0 0 C1.56210161 -0.05459773 3.12477089 -0.09306101 4.6875 -0.125 C5.55761719 -0.14820313 6.42773438 -0.17140625 7.32421875 -0.1953125 C10 0 10 0 12.32226562 0.98632812 C15.20462688 2.07746269 17.44888025 2.31113565 20.51953125 2.4140625 C21.54111328 2.45273437 22.56269531 2.49140625 23.61523438 2.53125 C25.19788086 2.57765625 25.19788086 2.57765625 26.8125 2.625 C27.88693359 2.66367187 28.96136719 2.70234375 30.06835938 2.7421875 C32.71207088 2.83618613 35.3557805 2.92184573 38 3 C38 3.33 38 3.66 38 4 C12.23623663 4.61916858 12.23623663 4.61916858 0 1 C0 0.67 0 0.34 0 0 Z " fill="#E5B873" transform="translate(210,390)"/>
<path d="M0 0 C-0.6875 2.375 -0.6875 2.375 -2 5 C-4.4375 6.125 -4.4375 6.125 -7 7 C-7.515625 7.515625 -8.03125 8.03125 -8.5625 8.5625 C-10.29446732 10.29446732 -11.62128554 10.58987682 -14 11 C-12.74337038 7.12539202 -11.60395437 5.0139745 -8 3 C-6.68 3 -5.36 3 -4 3 C-4 2.34 -4 1.68 -4 1 C-2 0 -2 0 0 0 Z " fill="#FCFAE6" transform="translate(292,377)"/>
<path d="M0 0 C1.32 0 2.64 0 4 0 C5.75 2 5.75 2 7 4 C4.42215154 6.64752004 2.08351902 8.94432065 -1 11 C-1.0270043 9.54176788 -1.04639787 8.08339325 -1.0625 6.625 C-1.07410156 5.81289063 -1.08570313 5.00078125 -1.09765625 4.1640625 C-1 2 -1 2 0 0 Z " fill="#ECA144" transform="translate(307,352)"/>
<path d="M0 0 C0.75 1.625 0.75 1.625 1 4 C-0.84018395 7.68036789 -2.13100539 9.58439388 -5.875 11.375 C-9.0107877 12.00215754 -11.81123709 12.15184585 -15 12 C-14.43539063 11.72929687 -13.87078125 11.45859375 -13.2890625 11.1796875 C-10.89060113 9.94362038 -8.64188569 8.5882406 -6.375 7.125 C-5.59898437 6.63257813 -4.82296875 6.14015625 -4.0234375 5.6328125 C-1.87567445 3.89967552 -1.02041853 2.53458796 0 0 Z " fill="#FBECCD" transform="translate(345,173)"/>
<path d="M0 0 C0.99 0.33 1.98 0.66 3 1 C-1.62 5.62 -6.24 10.24 -11 15 C-11.33 13.68 -11.66 12.36 -12 11 C-10.75 9.25 -10.75 9.25 -9 8 C-8.01 8 -7.02 8 -6 8 C-6 7.01 -6 6.02 -6 5 C-5.34 5 -4.68 5 -4 5 C-4 4.34 -4 3.68 -4 3 C-2.1875 1.3125 -2.1875 1.3125 0 0 Z " fill="#221307" transform="translate(221,119)"/>
<path d="M0 0 C5.445 1.485 5.445 1.485 11 3 C11.33 5.64 11.66 8.28 12 11 C9.96166576 9.7260411 7.96147874 8.38938077 6 7 C6 6.34 6 5.68 6 5 C5.01 4.67 4.02 4.34 3 4 C3 3.34 3 2.68 3 2 C2.01 1.67 1.02 1.34 0 1 C0 0.67 0 0.34 0 0 Z " fill="#FCEDCE" transform="translate(298,103)"/>
<path d="M0 0 C0.66 0.33 1.32 0.66 2 1 C1.06027344 1.81404297 1.06027344 1.81404297 0.1015625 2.64453125 C-0.71570313 3.35996094 -1.53296875 4.07539063 -2.375 4.8125 C-3.18710937 5.52019531 -3.99921875 6.22789063 -4.8359375 6.95703125 C-7.16183188 8.99981253 -7.16183188 8.99981253 -9 12 C-10.09151289 13.05656297 -11.21964161 14.07615692 -12.375 15.0625 C-12.96023438 15.56910156 -13.54546875 16.07570313 -14.1484375 16.59765625 C-16.01923762 18.01457027 -17.87250277 19.0206015 -20 20 C-18.59418609 18.35416908 -17.18698965 16.70950208 -15.7734375 15.0703125 C-14.59991782 13.70034459 -13.4381874 12.3201811 -12.2890625 10.9296875 C-8.5528506 6.48342628 -4.86632582 3.1780087 0 0 Z " fill="#242424" transform="translate(272,7)"/>
<path d="M0 0 C1.32 0 2.64 0 4 0 C4.33 1.98 4.66 3.96 5 6 C4.030625 6.268125 3.06125 6.53625 2.0625 6.8125 C1.051875 7.204375 0.04125 7.59625 -1 8 C-1.33 8.99 -1.66 9.98 -2 11 C-2.625 9.125 -2.625 9.125 -3 7 C-2.34 6.34 -1.68 5.68 -1 5 C-0.35232207 2.42938689 -0.35232207 2.42938689 0 0 Z " fill="#F2A136" transform="translate(339,150)"/>
<path d="M0 0 C0.99 0.6496875 0.99 0.6496875 2 1.3125 C8.86070529 5.17164673 15.16083421 6.53414793 23 7 C23 7.33 23 7.66 23 8 C20.95863605 8.05451714 18.91684144 8.09302485 16.875 8.125 C15.16957031 8.15980469 15.16957031 8.15980469 13.4296875 8.1953125 C8.7170137 7.926937 5.25680219 7.05835974 1.625 4 C0 2 0 2 0 0 Z " fill="#FCEDCC" transform="translate(307,178)"/>
<path d="M0 0 C0.99 0.33 1.98 0.66 3 1 C3 5.95 3 10.9 3 16 C1.02 16.99 1.02 16.99 -1 18 C-0.83628906 17.48953125 -0.67257812 16.9790625 -0.50390625 16.453125 C0.16698481 13.18708172 0.0933456 10.0813253 0.0625 6.75 C0.05347656 5.48671875 0.04445313 4.2234375 0.03515625 2.921875 C0.02355469 1.95765625 0.01195312 0.9934375 0 0 Z " fill="#FDF7DA" transform="translate(347,154)"/>
<path d="M0 0 C6.08522727 0.95454545 6.08522727 0.95454545 8.61328125 3.84375 C9.91647471 5.87012406 11.10469065 7.76172663 12 10 C11.67 10.66 11.34 11.32 11 12 C6.43951988 8.38748484 2.98334854 5.01202555 0 0 Z " fill="#E1AE6A" transform="translate(268,137)"/>
<path d="M0 0 C1.32 0.33 2.64 0.66 4 1 C0.04 4.96 -3.92 8.92 -8 13 C-8.33 11.68 -8.66 10.36 -9 9 C-8.01 9 -7.02 9 -6 9 C-6 8.01 -6 7.02 -6 6 C-5.34 6 -4.68 6 -4 6 C-3.34 4.68 -2.68 3.36 -2 2 C-1.34 2 -0.68 2 0 2 C0 1.34 0 0.68 0 0 Z " fill="#270F09" transform="translate(256,83)"/>
<path d="M0 0 C8.17367067 -0.4485551 13.97563746 -0.40744316 21 4 C20.01 5.485 20.01 5.485 19 7 C17.68 7 16.36 7 15 7 C15 6.01 15 5.02 15 4 C14.34 3.67 13.68 3.34 13 3 C12.67 2.67 12.34 2.34 12 2 C9.98405418 1.76572222 7.961526 1.58663876 5.9375 1.4375 C4.83277344 1.35371094 3.72804688 1.26992187 2.58984375 1.18359375 C1.73519531 1.12300781 0.88054687 1.06242188 0 1 C0 0.67 0 0.34 0 0 Z " fill="#282828" transform="translate(276,5)"/>
<path d="M0 0 C2.49118953 3.7367843 2.2065226 5.74451819 2.125 10.1875 C2.10695313 11.45980469 2.08890625 12.73210938 2.0703125 14.04296875 C2.03550781 15.50669922 2.03550781 15.50669922 2 17 C1.34 17 0.68 17 0 17 C-0.66 18.32 -1.32 19.64 -2 21 C-2.66 19.35 -3.32 17.7 -4 16 C-3.34515625 15.46890625 -2.6903125 14.9378125 -2.015625 14.390625 C0.575779 11.31709933 0.42204801 9.70710413 0.25 5.75 C0.21390625 4.67234375 0.1778125 3.5946875 0.140625 2.484375 C0.09421875 1.66453125 0.0478125 0.8446875 0 0 Z " fill="#484848" transform="translate(304,19)"/>
<path d="M0 0 C1.65 0 3.3 0 5 0 C5.33 0.66 5.66 1.32 6 2 C8.3140622 2.73075648 10.64828869 3.40138258 13 4 C13.33 5.65 13.66 7.3 14 9 C10.40188648 7.66355783 7.25716084 6.0247216 4 4 C3.34 3.67 2.68 3.34 2 3 C2 2.34 2 1.68 2 1 C1.34 0.67 0.68 0.34 0 0 Z " fill="#DDB06D" transform="translate(254,128)"/>
<path d="M0 0 C3.93657242 1.43213512 7.28931356 3.30332154 10.8125 5.5625 C12.27623047 6.49255859 12.27623047 6.49255859 13.76953125 7.44140625 C14.50558594 7.95574219 15.24164063 8.47007813 16 9 C16 9.33 16 9.66 16 10 C14.35 10 12.7 10 11 10 C10.67 9.01 10.34 8.02 10 7 C9.278125 6.938125 8.55625 6.87625 7.8125 6.8125 C4.13605406 5.75041562 2.48715058 3.84245781 0 1 C0 0.67 0 0.34 0 0 Z " fill="#E4AB60" transform="translate(278,90)"/>
<path d="M0 0 C-2.29688569 2.29688569 -3.78928171 2.71851303 -6.875 3.625 C-7.73867188 3.88539063 -8.60234375 4.14578125 -9.4921875 4.4140625 C-12 5 -12 5 -16 5 C-16 4.34 -16 3.68 -16 3 C-10.62669111 -0.39366878 -6.13053511 -0.32712342 0 0 Z " fill="#E0B267" transform="translate(272,387)"/>
<path d="M0 0 C-4.83532576 3.89912439 -9.720997 3.41304501 -15.625 3.3125 C-16.57890625 3.31572266 -17.5328125 3.31894531 -18.515625 3.32226562 C-25.59890731 3.26739513 -25.59890731 3.26739513 -29 1 C-21.74 1.33 -14.48 1.66 -7 2 C-7 1.34 -7 0.68 -7 0 C-2.25 -1.125 -2.25 -1.125 0 0 Z " fill="#E6BB7D" transform="translate(255,346)"/>
<path d="M0 0 C0.99 0.33 1.98 0.66 3 1 C2.5625 3.3125 2.5625 3.3125 1 6 C-1.90755893 7.36075884 -4.89287788 8.21362959 -8 9 C-7.04270084 7.87411986 -6.08412105 6.7493285 -5.125 5.625 C-4.59132812 4.99851562 -4.05765625 4.37203125 -3.5078125 3.7265625 C-2.38567993 2.44163349 -1.20628025 1.20628025 0 0 Z " fill="#D3A357" transform="translate(245,98)"/>
<path d="M0 0 C2.9375 0.75 2.9375 0.75 6 2 C6.6875 4.0625 6.6875 4.0625 7 6 C7.99 6.33 8.98 6.66 10 7 C12.07530387 9.92079805 13 11.37546731 13 15 C11.58155991 13.43910974 10.16532975 11.8762111 8.75 10.3125 C7.96109375 9.44238281 7.1721875 8.57226562 6.359375 7.67578125 C4.15500436 5.17579137 2.05866059 2.62054272 0 0 Z " fill="#E6B273" transform="translate(295,164)"/>
<path d="M0 0 C0 3 0 3 -2 6 C-1.67 6.66 -1.34 7.32 -1 8 C-1.99 8.99 -2.98 9.98 -4 11 C-5.32 10.34 -6.64 9.68 -8 9 C-7.04270084 7.87411986 -6.08412105 6.7493285 -5.125 5.625 C-4.59132812 4.99851562 -4.05765625 4.37203125 -3.5078125 3.7265625 C-2.38567993 2.44163349 -1.20628025 1.20628025 0 0 Z " fill="#151515" transform="translate(161,117)"/>
<path d="M0 0 C1.32 0 2.64 0 4 0 C4 0.99 4 1.98 4 3 C3.360625 3.268125 2.72125 3.53625 2.0625 3.8125 C-0.33131686 4.88667752 -0.33131686 4.88667752 -1 8 C-2.32 7.67 -3.64 7.34 -5 7 C-5 6.01 -5 5.02 -5 4 C-4.0409375 3.8453125 -4.0409375 3.8453125 -3.0625 3.6875 C-2.381875 3.460625 -1.70125 3.23375 -1 3 C-0.67 2.01 -0.34 1.02 0 0 Z " fill="#080314" transform="translate(244,80)"/>
<path d="M0 0 C-0.33103171 3.06204329 -0.60050904 4.60050904 -2.8125 6.8125 C-5 8 -5 8 -9 8 C-9 6 -9 6 -7.5390625 4.4921875 C-6.59160156 3.69167969 -6.59160156 3.69167969 -5.625 2.875 C-4.99851562 2.33617187 -4.37203125 1.79734375 -3.7265625 1.2421875 C-2 0 -2 0 0 0 Z " fill="#FBEECF" transform="translate(343,328)"/>
<path d="M0 0 C1.65 0.33 3.3 0.66 5 1 C5 1.66 5 2.32 5 3 C3.7934375 3.4021875 3.7934375 3.4021875 2.5625 3.8125 C1.716875 4.204375 0.87125 4.59625 0 5 C-0.33 5.99 -0.66 6.98 -1 8 C-2.32 7.67 -3.64 7.34 -5 7 C-5 6.01 -5 5.02 -5 4 C-4.0409375 3.8453125 -4.0409375 3.8453125 -3.0625 3.6875 C-2.381875 3.460625 -1.70125 3.23375 -1 3 C-0.67 2.01 -0.34 1.02 0 0 Z " fill="#070317" transform="translate(212,112)"/>
<path d="M0 0 C0.78375 0.04125 1.5675 0.0825 2.375 0.125 C1.715 1.445 1.055 2.765 0.375 4.125 C-0.285 4.125 -0.945 4.125 -1.625 4.125 C-1.625 4.785 -1.625 5.445 -1.625 6.125 C-3.605 7.115 -3.605 7.115 -5.625 8.125 C-4.59375 0.21875 -4.59375 0.21875 0 0 Z " fill="#FEF5D6" transform="translate(271.625,329.875)"/>
<path d="M0 0 C3.63195496 1.21065165 4.42896192 2.53691126 6.6875 5.5625 C7.31011719 6.38878906 7.93273437 7.21507812 8.57421875 8.06640625 C9.04472656 8.70449219 9.51523437 9.34257812 10 10 C9.01 10.495 9.01 10.495 8 11 C5.09517397 9.88275922 3.41951551 8.83903101 2.0078125 6.015625 C1.27017643 4.03454526 0.62865414 2.01831065 0 0 Z " fill="#FCEDCD" transform="translate(296,166)"/>
<path d="M0 0 C0.66 0.33 1.32 0.66 2 1 C-1.01148016 4.47478479 -3.50735835 5.97043629 -8 7 C-10.1875 6.54296875 -10.1875 6.54296875 -12 6 C-9.33333333 4.66666667 -6.66666667 3.33333333 -4 2 C-3.29359375 1.60554687 -2.5871875 1.21109375 -1.859375 0.8046875 C-1.24578125 0.53914062 -0.6321875 0.27359375 0 0 Z " fill="#F8EBD2" transform="translate(220,129)"/>
<path d="M0 0 C6.27 0 12.54 0 19 0 C19 0.66 19 1.32 19 2 C19.66 2.33 20.32 2.66 21 3 C14.07 2.34 7.14 1.68 0 1 C0 0.67 0 0.34 0 0 Z " fill="#E2B06A" transform="translate(231,125)"/>
<path d="M0 0 C3.15473719 0.35052635 4.8233534 0.86519076 7.375 2.8125 C9 5 9 5 8.75 7.25 C8.5025 7.8275 8.255 8.405 8 9 C1.42857143 3.85714286 1.42857143 3.85714286 0 0 Z " fill="#E2B16D" transform="translate(286,155)"/>
<path d="M0 0 C0.33 1.32 0.66 2.64 1 4 C0.01 4.33 -0.98 4.66 -2 5 C-2.99 6.485 -2.99 6.485 -4 8 C-6.31 7.67 -8.62 7.34 -11 7 C-8.80982632 5.53988421 -6.66442255 4.21860241 -4.375 2.9375 C-1.25421565 1.34128067 -1.25421565 1.34128067 0 0 Z " fill="#C39244" transform="translate(206,370)"/>
<path d="M0 0 C0.99 0.33 1.98 0.66 3 1 C-4.11389522 7.70387244 -4.11389522 7.70387244 -9 8 C-8.67 7.01 -8.34 6.02 -8 5 C-6.34561387 4.30341637 -4.67745682 3.63903117 -3 3 C-1.22722741 1.47992158 -1.22722741 1.47992158 0 0 Z " fill="#241102" transform="translate(205,368)"/>
<path d="M0 0 C0.66 0.33 1.32 0.66 2 1 C1.375 3.875 1.375 3.875 0 7 C-3.125 8.375 -3.125 8.375 -6 9 C-4.68775452 5.06326356 -3.08089673 2.77280706 0 0 Z " fill="#202020" transform="translate(102,177)"/>
<path d="M0 0 C0.99 0.33 1.98 0.66 3 1 C1.50902342 4.7952131 -0.75700849 6.61042731 -4 9 C-4.66 8.01 -5.32 7.02 -6 6 C-5.01 5.38125 -4.02 4.7625 -3 4.125 C-2.01 3.42375 -1.02 2.7225 0 2 C0 1.34 0 0.68 0 0 Z " fill="#111111" transform="translate(176,162)"/>
<path d="M0 0 C1.98 0.99 1.98 0.99 4 2 C4 2.66 4 3.32 4 4 C4.598125 4.28875 5.19625 4.5775 5.8125 4.875 C8 6 8 6 11 8 C6.76204266 8.36325349 4.33246046 7.68448204 1 5 C0.1875 2.3125 0.1875 2.3125 0 0 Z " fill="#F8EFD5" transform="translate(182,376)"/>
<path d="M0 0 C0.66 0 1.32 0 2 0 C0.83857315 4.35535069 -0.07699505 6.64619703 -4 9 C-4.33 7.35 -4.66 5.7 -5 4 C-4.34 4 -3.68 4 -3 4 C-2.505 3.34 -2.01 2.68 -1.5 2 C-1.005 1.34 -0.51 0.68 0 0 Z " fill="#E3A652" transform="translate(318,346)"/>
<path d="M0 0 C2.5 2.3125 2.5 2.3125 5 5 C5 5.99 5 6.98 5 8 C2.13275314 7.42655063 1.1385485 7.1385485 -1 5 C-0.67 4.34 -0.34 3.68 0 3 C-0.66 2.67 -1.32 2.34 -2 2 C-1.34 2 -0.68 2 0 2 C0 1.34 0 0.68 0 0 Z " fill="#171717" transform="translate(182,313)"/>
<path d="M0 0 C2.375 0.3125 2.375 0.3125 5 1 C7.1519437 4.22791555 7.20086443 5.28400809 7 9 C6.34 9 5.68 9 5 9 C4.54625 8.071875 4.0925 7.14375 3.625 6.1875 C2.0578367 2.96078611 2.0578367 2.96078611 0 0 Z " fill="#F8E7C1" transform="translate(340,295)"/>
<path d="M0 0 C0.33 0.99 0.66 1.98 1 3 C-0.28965176 4.37562854 -1.62689293 5.70766393 -3 7 C-3.66 7 -4.32 7 -5 7 C-5 7.99 -5 8.98 -5 10 C-5.99 10 -6.98 10 -8 10 C-7.67 8.68 -7.34 7.36 -7 6 C-6.34 6 -5.68 6 -5 6 C-4.731875 5.38125 -4.46375 4.7625 -4.1875 4.125 C-3 2 -3 2 0 0 Z " fill="#0F0510" transform="translate(255,82)"/>
<path d="M0 0 C0.99 0 1.98 0 3 0 C2.67 1.65 2.34 3.3 2 5 C-0.64 5.66 -3.28 6.32 -6 7 C-5.67 6.34 -5.34 5.68 -5 5 C-4.34 5 -3.68 5 -3 5 C-2.67 4.01 -2.34 3.02 -2 2 C-1.34 2 -0.68 2 0 2 C0 1.34 0 0.68 0 0 Z " fill="#E1AF69" transform="translate(310,294)"/>
<path d="M0 0 C2.64 0 5.28 0 8 0 C8 0.66 8 1.32 8 2 C8.66 2 9.32 2 10 2 C10 2.99 10 3.98 10 5 C6.08788267 3.84414715 3.1254959 2.64465038 0 0 Z " fill="#FDEDCC" transform="translate(330,289)"/>
<path d="M0 0 C0.99 0.33 1.98 0.66 3 1 C3.875 2.875 3.875 2.875 4 5 C2.5625 6.75 2.5625 6.75 1 8 C-1 5 -1 5 -0.625 2.3125 C-0.41875 1.549375 -0.2125 0.78625 0 0 Z " fill="#111111" transform="translate(99,288)"/>
<path d="M0 0 C0.99 0.33 1.98 0.66 3 1 C0.36 3.64 -2.28 6.28 -5 9 C-5.33 7.68 -5.66 6.36 -6 5 C-5.34 5 -4.68 5 -4 5 C-4 4.34 -4 3.68 -4 3 C-2.1875 1.3125 -2.1875 1.3125 0 0 Z " fill="#2E1603" transform="translate(237,103)"/>
<path d="M0 0 C4.85419266 0.59197472 8.64240676 1.86392488 13 4 C13.33 4.66 13.66 5.32 14 6 C8.8896856 4.8545847 4.62765919 3.54521255 0 1 C0 0.67 0 0.34 0 0 Z " fill="#F3D19C" transform="translate(264,84)"/>
<path d="M0 0 C-0.99 0.495 -0.99 0.495 -2 1 C-2 1.66 -2 2.32 -2 3 C-1.01 3.33 -0.02 3.66 1 4 C1 4.66 1 5.32 1 6 C-3.31392226 5.5206753 -5.16569547 4.2542015 -8 1 C-5.29120665 -0.35439668 -2.99066732 -0.06501451 0 0 Z " fill="#282124" transform="translate(183,370)"/>
<path d="M0 0 C2.125 0.9375 2.125 0.9375 4 2 C-1.14285714 7.57142857 -1.14285714 7.57142857 -5 8 C-4.67 7.01 -4.34 6.02 -4 5 C-2.67696283 4.6278958 -1.34262065 4.29369827 0 4 C0.33 3.34 0.66 2.68 1 2 C0.01 2.33 -0.98 2.66 -2 3 C-2 2.34 -2 1.68 -2 1 C-1.34 0.67 -0.68 0.34 0 0 Z " fill="#E6AA5B" transform="translate(302,362)"/>
<path d="M0 0 C0.66 0.33 1.32 0.66 2 1 C1.34 2.32 0.68 3.64 0 5 C-0.78375 4.95875 -1.5675 4.9175 -2.375 4.875 C-5.16116119 4.71271266 -5.16116119 4.71271266 -7 7 C-7.99 6.67 -8.98 6.34 -10 6 C-8.3811004 4.96951963 -6.75467511 3.95085322 -5.125 2.9375 C-4.22007812 2.36902344 -3.31515625 1.80054688 -2.3828125 1.21484375 C-1.20332031 0.61349609 -1.20332031 0.61349609 0 0 Z " fill="#E2AB61" transform="translate(262,341)"/>
<path d="M0 0 C0.99 0 1.98 0 3 0 C1.60667426 3.36720387 0.0210714 4.9859524 -3 7 C-3.66 5.68 -4.32 4.36 -5 3 C-4.360625 2.690625 -3.72125 2.38125 -3.0625 2.0625 C-1.06389179 1.1654837 -1.06389179 1.1654837 0 0 Z " fill="#141211" transform="translate(206,133)"/>
<path d="M0 0 C1.32 0 2.64 0 4 0 C4 0.66 4 1.32 4 2 C6.97 2 9.94 2 13 2 C12.67 2.99 12.34 3.98 12 5 C7.61110675 4.33501617 4.0188515 2.81242323 0 1 C0 0.67 0 0.34 0 0 Z " fill="#E6BC77" transform="translate(195,384)"/>
<path d="M0 0 C0.33 0 0.66 0 1 0 C0 7.42857143 0 7.42857143 -1 11 C-2.32 11.33 -3.64 11.66 -5 12 C-4.35173874 8.49938918 -2.85347275 6.01189321 -1 3 C-0.67 2.01 -0.34 1.02 0 0 Z " fill="#D89A4E" transform="translate(212,360)"/>
<path d="M0 0 C0.66 0 1.32 0 2 0 C2 0.66 2 1.32 2 2 C1.34 2 0.68 2 0 2 C0 3.32 0 4.64 0 6 C-0.639375 6.12375 -1.27875 6.2475 -1.9375 6.375 C-2.9584375 6.684375 -2.9584375 6.684375 -4 7 C-4.33 7.66 -4.66 8.32 -5 9 C-5.66 8.67 -6.32 8.34 -7 8 C-5.88200014 6.66079162 -4.75538103 5.32877444 -3.625 4 C-2.68527344 2.88625 -2.68527344 2.88625 -1.7265625 1.75 C-1.15679687 1.1725 -0.58703125 0.595 0 0 Z " fill="#FBE9C6" transform="translate(318,351)"/>
<path d="M0 0 C2.25 -0.375 2.25 -0.375 5 0 C7.3125 3 7.3125 3 9 6 C5.59687262 4.94124926 2.98646769 3.99097846 0 2 C0 1.34 0 0.68 0 0 Z " fill="#E2B878" transform="translate(186,378)"/>
<path d="M0 0 C-0.625 1.875 -0.625 1.875 -2 4 C-5 5.3125 -5 5.3125 -8 6 C-8.66 5.67 -9.32 5.34 -10 5 C-9.34 4.34 -8.68 3.68 -8 3 C-6.68 3 -5.36 3 -4 3 C-4 2.34 -4 1.68 -4 1 C-2 0 -2 0 0 0 Z " fill="#F8E5C1" transform="translate(292,377)"/>
<path d="M0 0 C1.32 0.33 2.64 0.66 4 1 C4 1.66 4 2.32 4 3 C5.65 3.33 7.3 3.66 9 4 C8.67 4.66 8.34 5.32 8 6 C5 6 5 6 3.61328125 4.6875 C2.40885417 3.125 1.20442708 1.5625 0 0 Z M9 3 C11 4 11 4 11 4 Z " fill="#282828" transform="translate(157,353)"/>
<path d="M0 0 C1.5 1.375 1.5 1.375 3 3 C3 3.66 3 4.32 3 5 C2.34 5 1.68 5 1 5 C0.67 6.32 0.34 7.64 0 9 C-0.33 8.01 -0.66 7.02 -1 6 C-1.66 6.99 -2.32 7.98 -3 9 C-2.44271087 5.65626525 -1.64826111 2.96687001 0 0 Z " fill="#E2E2E2" transform="translate(92,283)"/>
<path d="M0 0 C0.66 0.99 1.32 1.98 2 3 C1.443125 3.226875 0.88625 3.45375 0.3125 3.6875 C-2.63246684 5.35896766 -4.68156544 7.55276352 -7 10 C-7.66 9.67 -8.32 9.34 -9 9 C-6.03 6.03 -3.06 3.06 0 0 Z " fill="#2E2E2E" transform="translate(115,163)"/>
<path d="M0 0 C0.33 0.66 0.66 1.32 1 2 C-0.98 4.97 -0.98 4.97 -3 8 C-4.32 7.67 -5.64 7.34 -7 7 C-4.69 4.69 -2.38 2.38 0 0 Z " fill="#D19E50" transform="translate(236,107)"/>
<path d="M0 0 C1.65 0 3.3 0 5 0 C5 1.32 5 2.64 5 4 C3.02 4 1.04 4 -1 4 C-0.67 2.68 -0.34 1.36 0 0 Z " fill="#F09D4C" transform="translate(263,90)"/>
<path d="M0 0 C0.66 0.33 1.32 0.66 2 1 C-0.31 3.64 -2.62 6.28 -5 9 C-5.33 7.68 -5.66 6.36 -6 5 C-5.01 5 -4.02 5 -3 5 C-2.5359375 4.0409375 -2.5359375 4.0409375 -2.0625 3.0625 C-1 1 -1 1 0 0 Z " fill="#DDA862" transform="translate(341,325)"/>
<path d="M0 0 C1.32 0.66 2.64 1.32 4 2 C4 2.99 4 3.98 4 5 C3.01 5.33 2.02 5.66 1 6 C0.34 5.34 -0.32 4.68 -1 4 C-0.625 1.875 -0.625 1.875 0 0 Z " fill="#1D1D1D" transform="translate(138,270)"/>
<path d="M0 0 C0.12375 0.5775 0.2475 1.155 0.375 1.75 C0.91843033 4.03560051 0.91843033 4.03560051 2.125 6.0625 C3 8 3 8 2 11 C2 10.34 2 9.68 2 9 C0.68 9.33 -0.64 9.66 -2 10 C-1.54177532 6.53058454 -1.10868317 3.32604951 0 0 Z " fill="#2D2D2D" transform="translate(85,206)"/>
<path d="M0 0 C2.31 0.66 4.62 1.32 7 2 C7.33 1.34 7.66 0.68 8 0 C8 0.66 8 1.32 8 2 C8.66 2.33 9.32 2.66 10 3 C9.01 3 8.02 3 7 3 C7.33 4.32 7.66 5.64 8 7 C6 7 6 7 3.4375 4.625 C1 2 1 2 0 0 Z " fill="#FAEFD2" transform="translate(290,96)"/>
<path d="M0 0 C3.3125 0.1875 3.3125 0.1875 7 1 C8.9375 3.5625 8.9375 3.5625 10 6 C5.56909529 4.79157144 3.01887244 3.48331435 0 0 Z " fill="#FBECCD" transform="translate(280,90)"/>
<path d="M0 0 C1.98 1.65 3.96 3.3 6 5 C4.1875 6.0625 4.1875 6.0625 2 7 C1.01 6.67 0.02 6.34 -1 6 C-0.67 4.02 -0.34 2.04 0 0 Z " fill="#DDDDDD" transform="translate(114,310)"/>
<path d="M0 0 C0.66 0.33 1.32 0.66 2 1 C1.01 2.98 0.02 4.96 -1 7 C-2.65 7 -4.3 7 -6 7 C-5.67 6.34 -5.34 5.68 -5 5 C-4.34 5 -3.68 5 -3 5 C-2.5359375 4.0409375 -2.5359375 4.0409375 -2.0625 3.0625 C-1 1 -1 1 0 0 Z " fill="#E7B776" transform="translate(302,302)"/>
<path d="M0 0 C0.66 0.66 1.32 1.32 2 2 C1.625 4.125 1.625 4.125 1 6 C2.32 6.33 3.64 6.66 5 7 C5 7.66 5 8.32 5 9 C2.625 8.8125 2.625 8.8125 0 8 C-1.4375 5.625 -1.4375 5.625 -2 3 C-1.34 2.01 -0.68 1.02 0 0 Z " fill="#0F0F0F" transform="translate(170,302)"/>
<path d="M0 0 C0.33 0.66 0.66 1.32 1 2 C0.67 2.99 0.34 3.98 0 5 C-0.66 5 -1.32 5 -2 5 C-2 5.66 -2 6.32 -2 7 C-3.65 7.33 -5.3 7.66 -7 8 C-6.02133662 6.85373678 -5.04205413 5.70800212 -4.0625 4.5625 C-3.51722656 3.92441406 -2.97195312 3.28632812 -2.41015625 2.62890625 C-1.63204305 1.73008851 -0.84063472 0.84063472 0 0 Z " fill="#CD9D58" transform="translate(228,115)"/>
<path d="M0 0 C0.99 0.66 1.98 1.32 3 2 C0.42215154 4.64752004 -1.91648098 6.94432065 -5 9 C-5 8.01 -5 7.02 -5 6 C-3.68212715 4.97971135 -2.34789347 3.98028616 -1 3 C-0.67 2.01 -0.34 1.02 0 0 Z " fill="#DEAD64" transform="translate(311,354)"/>
<path d="M0 0 C0 3.66842255 -0.79029126 5.10451959 -3 8 C-5.6875 8.8125 -5.6875 8.8125 -8 9 C-7.04270084 7.87411986 -6.08412105 6.7493285 -5.125 5.625 C-4.59132813 4.99851562 -4.05765625 4.37203125 -3.5078125 3.7265625 C-2.38567993 2.44163349 -1.20628025 1.20628025 0 0 Z " fill="#F9E3C1" transform="translate(328,341)"/>
<path d="M0 0 C0.66 0.33 1.32 0.66 2 1 C1.67 1.99 1.34 2.98 1 4 C0.01 4 -0.98 4 -2 4 C-1.67 4.99 -1.34 5.98 -1 7 C-2.65 7 -4.3 7 -6 7 C-4.71937515 5.2925002 -3.38232443 3.62626404 -2 2 C-1.34 2 -0.68 2 0 2 C0 1.34 0 0.68 0 0 Z " fill="#EAB675" transform="translate(294,310)"/>
<path d="M0 0 C1.98 0 3.96 0 6 0 C6 0.99 6 1.98 6 3 C3.69 3 1.38 3 -1 3 C-0.67 2.01 -0.34 1.02 0 0 Z " fill="#F69C40" transform="translate(234,121)"/>
<path d="M0 0 C0.99 0.33 1.98 0.66 3 1 C-0.465 3.97 -0.465 3.97 -4 7 C-4.33 6.34 -4.66 5.68 -5 5 C-3.35 3.35 -1.7 1.7 0 0 Z " fill="#301604" transform="translate(221,119)"/>
<path d="M0 0 C0.66 0.66 1.32 1.32 2 2 C-1.465 4.97 -1.465 4.97 -5 8 C-5 6.68 -5 5.36 -5 4 C-4.01 4 -3.02 4 -2 4 C-2 3.01 -2 2.02 -2 1 C-1.34 0.67 -0.68 0.34 0 0 Z " fill="#311704" transform="translate(252,88)"/>
<path d="M0 0 C2.64 0 5.28 0 8 0 C6.68 1.65 5.36 3.3 4 5 C2.68 3.35 1.36 1.7 0 0 Z " fill="#252525" transform="translate(168,364)"/>
<path d="M0 0 C-0.99 0 -1.98 0 -3 0 C-3 0.66 -3 1.32 -3 2 C-3.639375 2.12375 -4.27875 2.2475 -4.9375 2.375 C-5.618125 2.58125 -6.29875 2.7875 -7 3 C-7.33 3.66 -7.66 4.32 -8 5 C-8 3.35 -8 1.7 -8 0 C-4.94736336 -0.98120464 -3.05263664 -0.98120464 0 0 Z " fill="#FEEECC" transform="translate(317,291)"/>
<path d="M0 0 C0.66 0.66 1.32 1.32 2 2 C1.625 4.625 1.625 4.625 1 7 C-0.32 6.67 -1.64 6.34 -3 6 C-1.125 1.125 -1.125 1.125 0 0 Z " fill="#2B2B2B" transform="translate(95,186)"/>
<path d="M0 0 C0.3125 2.3125 0.3125 2.3125 0 5 C-2.5 6.8125 -2.5 6.8125 -5 8 C-5 4 -5 4 -3.0625 1.75 C-1 0 -1 0 0 0 Z " fill="#FCF9F0" transform="translate(351,168)"/>
<path d="M0 0 C3.53600465 1.91135386 5.78972846 3.62642766 8 7 C5.03 6.505 5.03 6.505 2 6 C2 4.68 2 3.36 2 2 C1.34 2 0.68 2 0 2 C0 1.34 0 0.68 0 0 Z " fill="#FDF0D0" transform="translate(288,159)"/>
<path d="M0 0 C0.66 1.32 1.32 2.64 2 4 C-4.75 4.125 -4.75 4.125 -7 3 C-7 2.34 -7 1.68 -7 1 C-2.25 0 -2.25 0 0 0 Z " fill="#E5A757" transform="translate(320,124)"/>
<path d="M0 0 C0 3 0 3 -1 5 C0.32 5.33 1.64 5.66 3 6 C1.35 6.33 -0.3 6.66 -2 7 C-2.6875 5.1875 -2.6875 5.1875 -3 3 C-1.5625 1.25 -1.5625 1.25 0 0 Z " fill="#E8B168" transform="translate(223,122)"/>
<path d="M0 0 C0.99 0.33 1.98 0.66 3 1 C-0.465 3.97 -0.465 3.97 -4 7 C-3.6875 4.625 -3.6875 4.625 -3 2 C-2.01 1.34 -1.02 0.68 0 0 Z " fill="#341502" transform="translate(228,112)"/>
<path d="M0 0 C0.66 0.66 1.32 1.32 2 2 C-0.97 4.475 -0.97 4.475 -4 7 C-3.6875 4.625 -3.6875 4.625 -3 2 C-2.01 1.34 -1.02 0.68 0 0 Z " fill="#2B1506" transform="translate(244,96)"/>
<path d="M0 0 C-0.5775 0.268125 -1.155 0.53625 -1.75 0.8125 C-4.0325868 2.01719859 -5.9737942 3.40798115 -8 5 C-8.66 4.67 -9.32 4.34 -10 4 C-7.16124653 -0.25813021 -4.8137938 -0.13010254 0 0 Z " fill="#E2A85F" transform="translate(288,379)"/>
<path d="M0 0 C3.73639216 1.24546405 4.18756513 2.63404953 6 6 C3 6 3 6 1.3125 4.6875 C0 3 0 3 0 0 Z " fill="#D1D1D1" transform="translate(100,296)"/>
<path d="M0 0 C0.99 0.33 1.98 0.66 3 1 C2.67 4.96 2.34 8.92 2 13 C1.67 13 1.34 13 1 13 C0.67 8.71 0.34 4.42 0 0 Z " fill="#FEF0CB" transform="translate(347,154)"/>
<path d="M0 0 C3.59391114 1.33488128 6.75490696 2.96022723 10 5 C8 6 8 6 5 5.3125 C2 4 2 4 0.625 1.875 C0.41875 1.25625 0.2125 0.6375 0 0 Z " fill="#E3B470" transform="translate(278,90)"/>
<path d="M0 0 C1.65 0.33 3.3 0.66 5 1 C5 1.66 5 2.32 5 3 C2.69 3.33 0.38 3.66 -2 4 C-1.34 2.68 -0.68 1.36 0 0 Z " fill="#E8A72D" transform="translate(261,86)"/>
<path d="M0 0 C1.32 0 2.64 0 4 0 C4 0.66 4 1.32 4 2 C5.98 2 7.96 2 10 2 C10 2.66 10 3.32 10 4 C8.72125 3.896875 7.4425 3.79375 6.125 3.6875 C5.04605469 3.60048828 5.04605469 3.60048828 3.9453125 3.51171875 C2 3 2 3 0 0 Z " fill="#DCA955" transform="translate(206,387)"/>
<path d="M0 0 C2.97 0.495 2.97 0.495 6 1 C6 1.99 6 2.98 6 4 C4.35 3.67 2.7 3.34 1 3 C0.67 2.01 0.34 1.02 0 0 Z " fill="#E2A637" transform="translate(197,381)"/>
<path d="M0 0 C0.66 0.33 1.32 0.66 2 1 C0.515 3.475 0.515 3.475 -1 6 C-2.32 5.67 -3.64 5.34 -5 5 C-3.35 3.35 -1.7 1.7 0 0 Z " fill="#FBE8C9" transform="translate(309,360)"/>
<path d="M0 0 C2.4375 0.375 2.4375 0.375 5 1 C5.33 1.66 5.66 2.32 6 3 C4.02 3.33 2.04 3.66 0 4 C0 2.68 0 1.36 0 0 Z " fill="#E5E5E5" transform="translate(138,337)"/>
<path d="M0 0 C0 0.99 0 1.98 0 3 C-3.75 5 -3.75 5 -6 5 C-6 4.01 -6 3.02 -6 2 C-3 1 -3 1 -1 1 C-0.67 0.67 -0.34 0.34 0 0 Z " fill="#0E0E0E" transform="translate(143,328)"/>
<path d="M0 0 C1 2 1 2 0.375 4.0625 C-1 6 -1 6 -3.625 6.75 C-4.800625 6.87375 -4.800625 6.87375 -6 7 C-4.02 4.69 -2.04 2.38 0 0 Z " fill="#D9D9D9" transform="translate(143,200)"/>
<path d="M0 0 C1.32 0 2.64 0 4 0 C4 1.65 4 3.3 4 5 C2.68 4.34 1.36 3.68 0 3 C0 2.01 0 1.02 0 0 Z " fill="#080415" transform="translate(223,100)"/>
<path d="M0 0 C4.44870215 -0.39253254 7.14243493 0.84694043 11 3 C10.67 3.66 10.34 4.32 10 5 C5 3 5 3 0 1 C0 0.67 0 0.34 0 0 Z " fill="#FDF8DD" transform="translate(270,85)"/>
<path d="M0 0 C1.32 0.66 2.64 1.32 4 2 C1.6875 3.5625 1.6875 3.5625 -1 5 C-1.99 4.67 -2.98 4.34 -4 4 C-2.68 2.68 -1.36 1.36 0 0 Z " fill="#D6A86F" transform="translate(260,83)"/>
</svg>
